<?xml version="1.0" encoding="UTF-8" standalone="no"?>
<svg
   viewBox="0 0 24 24"
   version="1.1"
   id="svg4"
   sodipodi:docname="briefcase-outline.svg"
   inkscape:version="1.2 (1:1.2.1+202207142221+cd75a1ee6d)"
   xmlns:inkscape="http://www.inkscape.org/namespaces/inkscape"
   xmlns:sodipodi="http://sodipodi.sourceforge.net/DTD/sodipodi-0.dtd"
   xmlns="http://www.w3.org/2000/svg"
   xmlns:svg="http://www.w3.org/2000/svg">
  <defs
     id="defs8" />
  <sodipodi:namedview
     id="namedview6"
     pagecolor="#ffffff"
     bordercolor="#000000"
     borderopacity="0.25"
     inkscape:showpageshadow="2"
     inkscape:pageopacity="0.0"
     inkscape:pagecheckerboard="true"
     inkscape:deskcolor="#d1d1d1"
     showgrid="false"
     inkscape:zoom="34.625"
     inkscape:cx="12"
     inkscape:cy="12"
     inkscape:window-width="1920"
     inkscape:window-height="1031"
     inkscape:window-x="0"
     inkscape:window-y="25"
     inkscape:window-maximized="1"
     inkscape:current-layer="svg4" />
  <path
     d="M20,6C20.58,6 21.05,6.2 21.42,6.59C21.8,7 22,7.45 22,8V19C22,19.55 21.8,20 21.42,20.41C21.05,20.8 20.58,21 20,21H4C3.42,21 2.95,20.8 2.58,20.41C2.2,20 2,19.55 2,19V8C2,7.45 2.2,7 2.58,6.59C2.95,6.2 3.42,6 4,6H8V4C8,3.42 8.2,2.95 8.58,2.58C8.95,2.2 9.42,2 10,2H14C14.58,2 15.05,2.2 15.42,2.58C15.8,2.95 16,3.42 16,4V6H20M4,8V19H20V8H4M14,6V4H10V6H14Z"
     id="path2"
     style="fill:#ffffff" />
</svg>
