<?xml version="1.0" encoding="UTF-8" standalone="no"?>
<svg
   viewBox="0 0 24 24"
   version="1.1"
   id="svg4"
   sodipodi:docname="shield-check.svg"
   inkscape:version="1.2 (1:1.2.1+202207142221+cd75a1ee6d)"
   xmlns:inkscape="http://www.inkscape.org/namespaces/inkscape"
   xmlns:sodipodi="http://sodipodi.sourceforge.net/DTD/sodipodi-0.dtd"
   xmlns="http://www.w3.org/2000/svg"
   xmlns:svg="http://www.w3.org/2000/svg">
  <defs
     id="defs8" />
  <sodipodi:namedview
     id="namedview6"
     pagecolor="#ffffff"
     bordercolor="#000000"
     borderopacity="0.25"
     inkscape:showpageshadow="2"
     inkscape:pageopacity="0.0"
     inkscape:pagecheckerboard="true"
     inkscape:deskcolor="#d1d1d1"
     showgrid="false"
     inkscape:zoom="34.625"
     inkscape:cx="12.028881"
     inkscape:cy="12"
     inkscape:window-width="1920"
     inkscape:window-height="1031"
     inkscape:window-x="0"
     inkscape:window-y="25"
     inkscape:window-maximized="1"
     inkscape:current-layer="svg4" />
  <path
     d="M10,17L6,13L7.41,11.59L10,14.17L16.59,7.58L18,9M12,1L3,5V11C3,16.55 6.84,21.74 12,23C17.16,21.74 21,16.55 21,11V5L12,1Z"
     id="path2"
     style="fill:#000000" />
  <path
     style="fill:#ff00ff;stroke-width:0.0288809"
     d="M 16.561203,7.5603001 C 14.372029,9.740961 12.198455,11.938044 9.9916517,14.100293 9.127111,13.274053 8.2921722,12.417761 7.4434228,11.575079 c -0.1569855,-0.0051 -0.2474077,0.221259 -0.3771631,0.306228 -0.3598215,0.371097 -0.747783,0.724266 -1.0900059,1.106575 0.1041154,0.1845 0.314988,0.325052 0.4591379,0.492887 1.1800811,1.175656 2.3504398,2.361293 3.5410297,3.526169 0.1352906,0.0075 0.2053076,-0.180798 0.3143616,-0.247547 2.581343,-2.565295 5.150474,-5.143074 7.725011,-7.7153364 0.0054,-0.1568664 -0.218929,-0.2492799 -0.302785,-0.3798396 -0.371614,-0.367624 -0.724763,-0.7635375 -1.10776,-1.1136988 -0.01526,-0.012987 -0.02944,0.00432 -0.04405,0.00978 z"
     id="path1056" />
  <path
     style="fill:#ffffff;stroke-width:0.0288809"
     d="M 7.4959388,2.9627708 C 6.0013536,3.6270119 4.506769,4.2912531 3.0121841,4.955494 c -0.070482,0.1668404 -0.00904,0.3809742 -0.029671,0.5655463 0.00919,2.1130446 -0.020639,4.2265637 0.020758,6.3392937 0.039191,0.987376 0.2659502,1.959358 0.5513876,2.902076 1.04248,3.314723 3.4629993,6.227401 6.6552853,7.655579 0.574229,0.250158 1.165707,0.475546 1.779394,0.605364 0.557123,-0.09672 1.086296,-0.318908 1.612929,-0.519461 3.374516,-1.42729 5.898754,-4.524144 6.922721,-8.008687 0.292735,-1.01624 0.497062,-2.066884 0.4831,-3.128423 0.01875,-2.121792 0.0052,-4.243742 0.0094,-6.3655973 C 20.893713,4.8689698 20.673031,4.8381906 20.512764,4.7443656 17.681945,3.4862596 14.851126,2.2281535 12.020307,0.97004738 11.568679,1.1285293 11.132283,1.3587841 10.686495,1.5447857 9.6229765,2.0174474 8.5594576,2.4901091 7.4959388,2.9627708 Z m 9.7505072,5.2758911 c 0.233161,0.2487024 0.503748,0.4887177 0.706566,0.7521436 -0.53479,0.6262911 -1.144745,1.1841465 -1.717093,1.7764805 -2.071779,2.068216 -4.134966,4.154667 -6.230448,6.193172 -1.3405543,-1.294283 -2.659594,-2.611637 -3.9602317,-3.946018 -0.033504,-0.07402 0.1324768,-0.145591 0.1641658,-0.216286 0.3908384,-0.394955 0.7822564,-0.80108 1.1964499,-1.168021 0.8693089,0.808817 1.6974091,1.659595 2.5446753,2.491257 0.1568217,0.0048 0.2485647,-0.219711 0.3788487,-0.303962 2.093839,-2.073461 4.17659,-4.1580409 6.264427,-6.2375545 0.217547,0.2195962 0.435094,0.4391925 0.65264,0.6587884 z"
     id="path1060" />
  <path
     style="fill:#1d3744;stroke-width:0.0288809;fill-opacity:1"
     d="m 16.560018,7.5602437 c -2.15693,2.1398641 -4.294154,4.2995643 -6.468824,6.4212583 -0.05936,0.06873 -0.1240523,0.133271 -0.184098,0.02115 -0.8388072,-0.783803 -1.632667,-1.615394 -2.4770983,-2.392881 -0.134544,0.0059 -0.208955,0.170744 -0.3159964,0.241356 -0.3751442,0.369079 -0.7687392,0.729361 -1.1217307,1.114503 0.1026827,0.185764 0.2986588,0.338289 0.4441056,0.506108 1.1706155,1.18117 2.3433254,2.361699 3.5465321,3.50931 0.1431537,-0.0068 0.2143877,-0.187679 0.3281607,-0.261986 2.43679,-2.41013 4.869235,-4.824931 7.275348,-7.2657104 C 17.714871,9.3007535 17.872962,9.1643804 17.969653,8.9891697 17.894774,8.8081426 17.706084,8.685187 17.584135,8.5314139 17.258866,8.2040901 16.943878,7.8569261 16.603865,7.5504836 c -0.01522,-0.01289 -0.02932,0.00425 -0.04385,0.00976 z"
     id="path1062" />
</svg>
